# xmcd CD database file
#
# Track frame offsets:
#	150
#	12442
#	37127
#	63871
#	108369
#	130464
#	148397
#	170117
#
# Disc length: 2878 seconds
#
# Revision: 0
# Processed by: cddbd v1.5.1PL2 Copyright (c) Steve Scherf et al.
# Submitted via: CDex 1.51
#
DISCID=7a0b3c08
DTITLE=RAVI SHANKAR - (George Harrison, producer) - RAVI SHANKAR'S - Music Festival from India (1976)
DYEAR=1976
DGENRE=Jazz
TTITLE0='VANDANA'
TTITLE1='DHAMAR'
TTITLE2='TARANA - CHATURANG'
TTITLE3='RAGA JAIT'
TTITLE4='KAJRI'
TTITLE5='BHAJAN'
TTITLE6='NADERDANI'
TTITLE7='DEHATI'
EXTD=YEAR: 1976
EXTT0=
EXTT1=
EXTT2=
EXTT3=
EXTT4=
EXTT5=
EXTT6=
EXTT7=
PLAYORDER=
